<svg width="1200" height="675" viewBox="0 0 1200 675" fill="none" xmlns="http://www.w3.org/2000/svg">
  <defs>
    <linearGradient id="bg" x1="70" y1="20" x2="1120" y2="655" gradientUnits="userSpaceOnUse">
      <stop stop-color="#FFF8CC"/>
      <stop offset="0.48" stop-color="#F7F9FC"/>
      <stop offset="1" stop-color="#E8F2FF"/>
    </linearGradient>
    <linearGradient id="appCard" x1="176" y1="205" x2="527" y2="475" gradientUnits="userSpaceOnUse">
      <stop stop-color="#FFFFFF"/>
      <stop offset="1" stop-color="#F7F8FA"/>
    </linearGradient>
    <filter id="browserShadow" x="32" y="34" width="1136" height="615" filterUnits="userSpaceOnUse">
      <feDropShadow dx="0" dy="20" stdDeviation="22" flood-color="#191F28" flood-opacity="0.14"/>
    </filter>
    <filter id="panelShadow" x="727" y="114" width="388" height="459" filterUnits="userSpaceOnUse">
      <feDropShadow dx="0" dy="19" stdDeviation="21" flood-color="#191F28" flood-opacity="0.20"/>
    </filter>
    <filter id="fabShadow" x="946" y="530" width="160" height="100" filterUnits="userSpaceOnUse">
      <feDropShadow dx="0" dy="10" stdDeviation="12" flood-color="#191F28" flood-opacity="0.22"/>
    </filter>
    <filter id="cardShadow" x="141" y="171" width="430" height="354" filterUnits="userSpaceOnUse">
      <feDropShadow dx="0" dy="10" stdDeviation="14" flood-color="#191F28" flood-opacity="0.09"/>
    </filter>
  </defs>

  <rect width="1200" height="675" rx="28" fill="url(#bg)"/>
  <circle cx="108" cy="86" r="76" fill="#FFDD00" fill-opacity="0.22"/>
  <circle cx="1125" cy="616" r="116" fill="#3182F6" fill-opacity="0.09"/>

  <g filter="url(#browserShadow)">
    <rect x="54" y="54" width="1092" height="571" rx="24" fill="#FFFFFF"/>
  </g>
  <path d="M54 78C54 64.7452 64.7452 54 78 54H1122C1135.25 54 1146 64.7452 1146 78V112H54V78Z" fill="#F2F4F6"/>
  <circle cx="84" cy="83" r="6" fill="#FF6B6B"/>
  <circle cx="105" cy="83" r="6" fill="#FFD43B"/>
  <circle cx="126" cy="83" r="6" fill="#51CF66"/>
  <rect x="220" y="69" width="690" height="28" rx="14" fill="#FFFFFF"/>
  <circle cx="242" cy="83" r="5" stroke="#8B95A1" stroke-width="2"/>
  <path d="M246 87L250 91" stroke="#8B95A1" stroke-width="2" stroke-linecap="round"/>
  <text x="268" y="88" fill="#8B95A1" font-family="-apple-system, BlinkMacSystemFont, 'Segoe UI', sans-serif" font-size="13">my-vibe-app.dev</text>

  <text x="144" y="159" fill="#191F28" font-family="-apple-system, BlinkMacSystemFont, 'Segoe UI', sans-serif" font-size="15" font-weight="700" letter-spacing="1.4">MY VIBE APP</text>
  <rect x="958" y="142" width="74" height="34" rx="17" fill="#F2F4F6"/>
  <text x="981" y="164" fill="#4E5968" font-family="-apple-system, BlinkMacSystemFont, 'Segoe UI', sans-serif" font-size="13" font-weight="600">Docs</text>
  <rect x="1042" y="142" width="56" height="34" rx="17" fill="#191F28"/>
  <text x="1058" y="164" fill="#FFFFFF" font-family="-apple-system, BlinkMacSystemFont, 'Segoe UI', sans-serif" font-size="13" font-weight="600">Start</text>

  <g filter="url(#cardShadow)">
    <rect x="165" y="195" width="382" height="306" rx="28" fill="url(#appCard)"/>
  </g>
  <rect x="196" y="225" width="48" height="48" rx="15" fill="#FFDD00"/>
  <path d="M209 248.5C209 241.596 214.596 236 221.5 236H231V245.5C231 252.404 225.404 258 218.5 258H209V248.5Z" fill="#191F28"/>
  <circle cx="225" cy="242" r="3" fill="#FFDD00"/>
  <text x="196" y="312" fill="#191F28" font-family="-apple-system, BlinkMacSystemFont, 'Segoe UI', sans-serif" font-size="30" font-weight="750" letter-spacing="-1.1">작은 앱도</text>
  <text x="196" y="349" fill="#191F28" font-family="-apple-system, BlinkMacSystemFont, 'Segoe UI', sans-serif" font-size="30" font-weight="750" letter-spacing="-1.1">계속 만들 수 있게.</text>
  <text x="196" y="385" fill="#4E5968" font-family="-apple-system, BlinkMacSystemFont, 'Segoe UI', sans-serif" font-size="15">좋아하는 도구를 만들고 공유하세요.</text>
  <rect x="196" y="421" width="178" height="48" rx="15" fill="#191F28"/>
  <text x="222" y="451" fill="#FFFFFF" font-family="-apple-system, BlinkMacSystemFont, 'Segoe UI', sans-serif" font-size="14" font-weight="650">지금 시작하기</text>
  <path d="M346 441L353 445L346 449" stroke="#FFFFFF" stroke-width="1.8" stroke-linecap="round" stroke-linejoin="round"/>

  <text x="608" y="220" fill="#8B95A1" font-family="-apple-system, BlinkMacSystemFont, 'Segoe UI', sans-serif" font-size="12" font-weight="700" letter-spacing="1.3">ONE SCRIPT TAG</text>
  <text x="608" y="261" fill="#191F28" font-family="-apple-system, BlinkMacSystemFont, 'Segoe UI', sans-serif" font-size="25" font-weight="750" letter-spacing="-0.7">후원 버튼을 1분 만에</text>
  <text x="608" y="292" fill="#4E5968" font-family="-apple-system, BlinkMacSystemFont, 'Segoe UI', sans-serif" font-size="14">백엔드 없이 결제 링크를 바로 연결합니다.</text>
  <rect x="608" y="323" width="276" height="146" rx="18" fill="#191F28"/>
  <circle cx="632" cy="347" r="4" fill="#FF6B6B"/>
  <circle cx="647" cy="347" r="4" fill="#FFD43B"/>
  <circle cx="662" cy="347" r="4" fill="#51CF66"/>
  <text x="630" y="380" fill="#9CA3AD" font-family="SFMono-Regular, Consolas, monospace" font-size="11">&lt;script</text>
  <text x="682" y="380" fill="#75B9FF" font-family="SFMono-Regular, Consolas, monospace" font-size="11">src</text>
  <text x="704" y="380" fill="#E7EAEE" font-family="SFMono-Regular, Consolas, monospace" font-size="11">="vibetip.iife.js"</text>
  <text x="630" y="400" fill="#75B9FF" font-family="SFMono-Regular, Consolas, monospace" font-size="11">data-name</text>
  <text x="696" y="400" fill="#E7EAEE" font-family="SFMono-Regular, Consolas, monospace" font-size="11">="홍길동"</text>
  <text x="630" y="420" fill="#75B9FF" font-family="SFMono-Regular, Consolas, monospace" font-size="11">data-links</text>
  <text x="702" y="420" fill="#E7EAEE" font-family="SFMono-Regular, Consolas, monospace" font-size="11">="kakaopay, github"</text>
  <text x="630" y="440" fill="#9CA3AD" font-family="SFMono-Regular, Consolas, monospace" font-size="11">&gt;&lt;/script&gt;</text>

  <g filter="url(#panelShadow)">
    <rect x="753" y="139" width="336" height="407" rx="25" fill="#FFFFFF"/>
  </g>
  <text x="779" y="177" fill="#191F28" font-family="-apple-system, BlinkMacSystemFont, 'Segoe UI', sans-serif" font-size="18" font-weight="750">홍길동</text>
  <circle cx="1059" cy="166" r="16" fill="#F7F8FA"/>
  <path d="M1054 161L1064 171M1064 161L1054 171" stroke="#8B95A1" stroke-width="1.7" stroke-linecap="round"/>
  <text x="779" y="205" fill="#4E5968" font-family="-apple-system, BlinkMacSystemFont, 'Segoe UI', sans-serif" font-size="14">이 앱이 도움이 됐다면 커피 한 잔!</text>

  <rect x="779" y="230" width="284" height="65" rx="16" fill="#F2F4F6"/>
  <rect x="793" y="243" width="40" height="40" rx="12" fill="#FFFFFF"/>
  <text x="803" y="269" fill="#191F28" font-family="-apple-system, BlinkMacSystemFont, 'Segoe UI Emoji', sans-serif" font-size="20">💛</text>
  <text x="847" y="268" fill="#191F28" font-family="-apple-system, BlinkMacSystemFont, 'Segoe UI', sans-serif" font-size="15" font-weight="650">카카오페이 송금</text>
  <text x="1034" y="268" fill="#8B95A1" font-family="-apple-system, BlinkMacSystemFont, 'Segoe UI', sans-serif" font-size="15">↗</text>

  <rect x="779" y="303" width="284" height="65" rx="16" fill="#F2F4F6"/>
  <rect x="793" y="316" width="40" height="40" rx="12" fill="#FFFFFF"/>
  <text x="803" y="342" fill="#191F28" font-family="-apple-system, BlinkMacSystemFont, 'Segoe UI Emoji', sans-serif" font-size="20">💜</text>
  <text x="847" y="341" fill="#191F28" font-family="-apple-system, BlinkMacSystemFont, 'Segoe UI', sans-serif" font-size="15" font-weight="650">GitHub Sponsors</text>
  <text x="1034" y="341" fill="#8B95A1" font-family="-apple-system, BlinkMacSystemFont, 'Segoe UI', sans-serif" font-size="15">↗</text>

  <rect x="779" y="376" width="284" height="65" rx="16" fill="#F2F4F6"/>
  <rect x="793" y="389" width="40" height="40" rx="12" fill="#FFFFFF"/>
  <text x="803" y="415" fill="#191F28" font-family="-apple-system, BlinkMacSystemFont, 'Segoe UI Emoji', sans-serif" font-size="20">🎁</text>
  <text x="847" y="414" fill="#191F28" font-family="-apple-system, BlinkMacSystemFont, 'Segoe UI', sans-serif" font-size="15" font-weight="650">직접 후원</text>
  <text x="1034" y="414" fill="#8B95A1" font-family="-apple-system, BlinkMacSystemFont, 'Segoe UI', sans-serif" font-size="15">↗</text>

  <path d="M779 466H1063" stroke="#022047" stroke-opacity="0.09"/>
  <text x="905" y="496" fill="#8B95A1" font-family="-apple-system, BlinkMacSystemFont, 'Segoe UI', sans-serif" font-size="11" font-weight="550">Powered by VibeTip</text>

  <g filter="url(#fabShadow)">
    <rect x="971" y="555" width="110" height="52" rx="26" fill="#FFDD00"/>
  </g>
  <path d="M1004 573L1018 589M1018 573L1004 589" stroke="#191F28" stroke-width="2.2" stroke-linecap="round"/>
  <text x="1030" y="588" fill="#191F28" font-family="-apple-system, BlinkMacSystemFont, 'Segoe UI', sans-serif" font-size="15" font-weight="750">Tip</text>
</svg>
